<svg width="226" height="29" viewBox="0 0 226 29" fill="none" xmlns="http://www.w3.org/2000/svg">
<rect y="23.0477" width="27.9264" height="6.875" rx="3.4375" transform="rotate(-55 0 23.0477)" fill="white"/>
<rect x="197" y="23.0477" width="27.9264" height="6.875" rx="3.4375" transform="rotate(-55 197 23.0477)" fill="white"/>
<rect x="43" y="23.2554" width="24.7273" height="4.92791" rx="2.46395" transform="rotate(-55 43 23.2554)" fill="white"/>
<rect x="137" y="23.2554" width="24.7273" height="4.92791" rx="2.46395" transform="rotate(-55 137 23.2554)" fill="white"/>
<rect x="82.0398" y="14.1148" width="15.2534" height="3.44595" rx="1.72297" transform="rotate(0.664294 82.0398 14.1148)" fill="white"/>
<rect x="82.0398" y="1" width="15.2534" height="3.44595" rx="1.72297" transform="rotate(0.664294 82.0398 1)" fill="white"/>
<rect x="174.382" y="12.4035" width="16.8945" height="4.04162" rx="2.02081" transform="rotate(-45 174.382 12.4035)" fill="white"/>
<rect x="177.262" y="13.8944" width="16.4263" height="4.28881" rx="2.1444" transform="rotate(43.5253 177.262 13.8944)" fill="white"/>
<rect x="82.04" y="24" width="11.795" height="3.44595" rx="1.72297" transform="rotate(0.664294 82.04 24)" fill="white"/>
<rect x="97.6648" y="18.0449" width="9.58474" height="3.56072" rx="1.78036" transform="rotate(90.722 97.6648 18.0449)" fill="white"/>
<rect x="113.95" y="0.340332" width="13.1931" height="3.56072" rx="1.78036" transform="rotate(46.3919 113.95 0.340332)" fill="white"/>
<rect x="119.85" y="12.8115" width="7.47008" height="3.56072" rx="1.78036" transform="rotate(148.587 119.85 12.8115)" fill="white"/>
<rect x="22" y="27" width="26" height="7" rx="3.5" transform="rotate(-90 22 27)" fill="white"/>
<rect x="219" y="27" width="26" height="7" rx="3.5" transform="rotate(-90 219 27)" fill="white"/>
<rect x="210" y="14" width="9" height="7" rx="3.5" fill="white"/>
<rect x="37" y="27" width="26" height="6" rx="3" transform="rotate(-90 37 27)" fill="white"/>
<rect x="131" y="27" width="26" height="6" rx="3" transform="rotate(-90 131 27)" fill="white"/>
<rect x="61" y="27" width="26" height="6" rx="3" transform="rotate(-90 61 27)" fill="white"/>
<circle cx="64" cy="5" r="1" fill="#1C2C34"/>
<circle cx="64" cy="24" r="1" fill="#1C2C34"/>
<rect x="155" y="27" width="26" height="6" rx="3" transform="rotate(-90 155 27)" fill="white"/>
<rect x="106" y="27" width="26" height="6" rx="3" transform="rotate(-90 106 27)" fill="white"/>
<rect x="169" y="27" width="26" height="6" rx="3" transform="rotate(-90 169 27)" fill="white"/>
<rect x="75" y="27" width="26" height="7" rx="3.5" transform="rotate(-90 75 27)" fill="white"/>
<circle cx="109" cy="5" r="1" fill="#1C2C34"/>
<circle cx="134" cy="5" r="1" fill="#1C2C34"/>
<circle cx="172" cy="5" r="1" fill="#1C2C34"/>
<circle cx="222.5" cy="5.5" r="1.5" fill="#1C2C34"/>
<circle cx="222.5" cy="23.5" r="1.5" fill="#1C2C34"/>
<circle cx="109" cy="23" r="1" fill="#1C2C34"/>
<circle cx="134" cy="23" r="1" fill="#1C2C34"/>
<circle cx="172" cy="23" r="1" fill="#1C2C34"/>
<circle cx="25.5" cy="5.5" r="1.5" fill="#1C2C34"/>
<circle cx="78.5" cy="5.5" r="1.5" fill="#1C2C34"/>
<circle cx="25.5" cy="23.5" r="1.5" fill="#1C2C34"/>
<circle cx="78.5" cy="23.5" r="1.5" fill="#1C2C34"/>
</svg>
